# xmcd
# Track frame offsets:
# 150
# 16975
# 29201
# 44821
# 63100
# 74895
# 95990
# 119874
# 132551
# 145208
# 157204
# 170117
#
# Disc length: 2524 seconds
# Revision: 0
# Processed by: cddbd v1.5.2PL0 Copyright (c) Steve Scherf et al.
# Submitted via: VisiTrax 2.10.3.257 - For more info visit www.synapsa.com
#
DISCID=d109da0c
DTITLE=Ray Charles - Special
DYEAR=1990
DGENRE=Blues
TTITLE0=Ruby
TTITLE1=Unchain my heart
TTITLE2=Georgia on my mind
TTITLE3=I can't stop loving you
TTITLE4=A tear fell
TTITLE5=I didn't know what time it was
TTITLE6=Ol' man river
TTITLE7=Let's go get stoned
TTITLE8=Sentimental journey
TTITLE9=Yesterday
TTITLE10=Eleanor Rigby
TTITLE11=Indian love call
EXTD=Da LP
EXTT0=
EXTT1=
EXTT2=
EXTT3=
EXTT4=
EXTT5=
EXTT6=
EXTT7=
EXTT8=
EXTT9=
EXTT10=
EXTT11=
PLAYORDER=
